# xmcd CD database file
#
# Track frame offsets:
#	150
#	12440
#	29687
#	47637
#	94147
#	128267
#	147440
#	176640
#	191052
#
# Disc length: 2811 seconds
#
# Revision: 2
# Processed by: cddbd v1.5.1PL0 Copyright (c) Steve Scherf et al.
# Submitted via: CDex 1.51
#
DISCID=790af909
DTITLE=Billy Bean - The Trio: Rediscovered
DYEAR=1958
DGENRE=Jazz
TTITLE0=Motivation
TTITLE1=Lush Life
TTITLE2=All of You
TTITLE3=Porgy and Bess Medley
TTITLE4=Lands ENd
TTITLE5=Have You Met Miss Jones
TTITLE6=Grooveyard
TTITLE7=Che-Low
TTITLE8=Safari
EXTD=YEAR: 1958
EXTT0=
EXTT1=
EXTT2=
EXTT3=
EXTT4=
EXTT5=
EXTT6=
EXTT7=
EXTT8=
PLAYORDER=
